<?xml version="1.0" standalone="no"?>
<!DOCTYPE svg PUBLIC "-//W3C//DTD SVG 1.1//EN" "http://www.w3.org/Graphics/SVG/1.1/DTD/svg11.dtd">
<svg version="1.1" xmlns="http://www.w3.org/2000/svg" viewBox="0 0 1505 2107" width="3010" height="4214"><!-- svg-source:excalidraw --><metadata></metadata><defs><style class="style-fonts">
      </style></defs><rect x="0" y="0" width="1505" height="2107" fill="#ffffff"></rect><g transform="translate(260 10) rotate(0 310 17.5)"><text x="310" y="25.060546875" font-family="Helvetica, sans-serif, Segoe UI Emoji" font-size="28px" fill="#1e1e1e" text-anchor="middle" style="white-space: pre;" direction="ltr" dominant-baseline="alphabetic">Fluxo de Geração de Chaves (CRYSTALS-Dilithium)</text></g><g stroke-linecap="round" transform="translate(110 70) rotate(0 80 30)"><path d="M15 0 C44.18 0, 73.36 0, 145 0 C155 0, 160 5, 160 15 C160 21.2, 160 27.39, 160 45 C160 55, 155 60, 145 60 C106.93 60, 68.87 60, 15 60 C5 60, 0 55, 0 45 C0 35.19, 0 25.38, 0 15 C0 5, 5 0, 15 0" stroke="none" stroke-width="0" fill="#6750A430"></path><path d="M15 0 C41.59 0, 68.17 0, 145 0 M15 0 C58.91 0, 102.83 0, 145 0 M145 0 C155 0, 160 5, 160 15 M145 0 C155 0, 160 5, 160 15 M160 15 C160 25.12, 160 35.24, 160 45 M160 15 C160 24.03, 160 33.06, 160 45 M160 45 C160 55, 155 60, 145 60 M160 45 C160 55, 155 60, 145 60 M145 60 C105.5 60, 66.01 60, 15 60 M145 60 C112.24 60, 79.49 60, 15 60 M15 60 C5 60, 0 55, 0 45 M15 60 C5 60, 0 55, 0 45 M0 45 C0 33.51, 0 22.02, 0 15 M0 45 C0 33.91, 0 22.83, 0 15 M0 15 C0 5, 5 0, 15 0 M0 15 C0 5, 5 0, 15 0" stroke="#6750A4" stroke-width="2" fill="none"></path></g><g transform="translate(130 87) rotate(0 60 13)"><text x="60" y="17.3203125" font-family="Helvetica, sans-serif, Segoe UI Emoji" font-size="16px" fill="#6750A4" text-anchor="middle" style="white-space: pre;" direction="ltr" dominant-baseline="alphabetic">Configuração PIN</text></g><g stroke-linecap="round"><g transform="translate(275 100) rotate(0 22.5 0)"><path d="M0 0 C9.2 0, 18.41 0, 45 0 M0 0 C12.68 0, 25.36 0, 45 0" stroke="#1e1e1e" stroke-width="2" fill="none"></path></g><g transform="translate(275 100) rotate(0 22.5 0)"><path d="M23.86 7.7 C28.18 6.12, 32.51 4.55, 45 0 M23.86 7.7 C29.81 5.53, 35.77 3.36, 45 0" stroke="#1e1e1e" stroke-width="2" fill="none"></path></g><g transform="translate(275 100) rotate(0 22.5 0)"><path d="M23.86 -7.7 C28.18 -6.12, 32.51 -4.55, 45 0 M23.86 -7.7 C29.81 -5.53, 35.77 -3.36, 45 0" stroke="#1e1e1e" stroke-width="2" fill="none"></path></g></g><mask></mask><g stroke-linecap="round" transform="translate(325 70) rotate(0 95 30)"><path d="M15 0 C60.51 0, 106.01 0, 175 0 C185 0, 190 5, 190 15 C190 26.48, 190 37.96, 190 45 C190 55, 185 60, 175 60 C127.15 60, 79.29 60, 15 60 C5 60, 0 55, 0 45 C0 37.3, 0 29.59, 0 15 C0 5, 5 0, 15 0" stroke="none" stroke-width="0" fill="#00BCD430"></path><path d="M15 0 C47.72 0, 80.45 0, 175 0 M15 0 C71.61 0, 128.21 0, 175 0 M175 0 C185 0, 190 5, 190 15 M175 0 C185 0, 190 5, 190 15 M190 15 C190 26.69, 190 38.39, 190 45 M190 15 C190 23.09, 190 31.18, 190 45 M190 45 C190 55, 185 60, 175 60 M190 45 C190 55, 185 60, 175 60 M175 60 C118.87 60, 62.73 60, 15 60 M175 60 C127.09 60, 79.18 60, 15 60 M15 60 C5 60, 0 55, 0 45 M15 60 C5 60, 0 55, 0 45 M0 45 C0 37.7, 0 30.4, 0 15 M0 45 C0 33.04, 0 21.07, 0 15 M0 15 C0 5, 5 0, 15 0 M0 15 C0 5, 5 0, 15 0" stroke="#00BCD4" stroke-width="2" fill="none"></path></g><g transform="translate(345 87) rotate(0 75 13)"><text x="75" y="17.05029296875" font-family="Helvetica, sans-serif, Segoe UI Emoji" font-size="15px" fill="#00BCD4" text-anchor="middle" style="white-space: pre;" direction="ltr" dominant-baseline="alphabetic">PqcService.initialize()</text></g><g stroke-linecap="round"><g transform="translate(520 100) rotate(0 22.5 0)"><path d="M0 0 C9.2 0, 18.41 0, 45 0 M0 0 C13.4 0, 26.8 0, 45 0" stroke="#1e1e1e" stroke-width="2" fill="none"></path></g><g transform="translate(520 100) rotate(0 22.5 0)"><path d="M23.86 7.7 C28.18 6.12, 32.51 4.55, 45 0 M23.86 7.7 C30.15 5.4, 36.45 3.11, 45 0" stroke="#1e1e1e" stroke-width="2" fill="none"></path></g><g transform="translate(520 100) rotate(0 22.5 0)"><path d="M23.86 -7.7 C28.18 -6.12, 32.51 -4.55, 45 0 M23.86 -7.7 C30.15 -5.4, 36.45 -3.11, 45 0" stroke="#1e1e1e" stroke-width="2" fill="none"></path></g></g><mask></mask><g stroke-linecap="round" transform="translate(570 70) rotate(0 110 30)"><path d="M15 0 C80.43 0, 145.86 0, 205 0 C215 0, 220 5, 220 15 C220 25.76, 220 36.52, 220 45 C220 55, 215 60, 205 60 C146.98 60, 88.97 60, 15 60 C5 60, 0 55, 0 45 C0 33.41, 0 21.81, 0 15 C0 5, 5 0, 15 0" stroke="none" stroke-width="0" fill="#00BCD430"></path><path d="M15 0 C53.86 0, 92.72 0, 205 0 M15 0 C85.26 0, 155.51 0, 205 0 M205 0 C215 0, 220 5, 220 15 M205 0 C215 0, 220 5, 220 15 M220 15 C220 22.27, 220 29.54, 220 45 M220 15 C220 22.15, 220 29.29, 220 45 M220 45 C220 55, 215 60, 205 60 M220 45 C220 55, 215 60, 205 60 M205 60 C129.41 60, 53.81 60, 15 60 M205 60 C139.09 60, 73.18 60, 15 60 M15 60 C5 60, 0 55, 0 45 M15 60 C5 60, 0 55, 0 45 M0 45 C0 35.89, 0 26.77, 0 15 M0 45 C0 38.16, 0 31.32, 0 15 M0 15 C0 5, 5 0, 15 0 M0 15 C0 5, 5 0, 15 0" stroke="#00BCD4" stroke-width="2" fill="none"></path></g><g transform="translate(580 87) rotate(0 100 13)"><text x="100" y="16.7802734375" font-family="Helvetica, sans-serif, Segoe UI Emoji" font-size="14px" fill="#00BCD4" text-anchor="middle" style="white-space: pre;" direction="ltr" dominant-baseline="alphabetic">generateKeyPair(dilithium3)</text></g><g stroke-linecap="round"><g transform="translate(795 100) rotate(0 22.5 0)"><path d="M0 0 C9.2 0, 18.41 0, 45 0 M0 0 C14.12 0, 28.24 0, 45 0" stroke="#1e1e1e" stroke-width="2" fill="none"></path></g><g transform="translate(795 100) rotate(0 22.5 0)"><path d="M23.86 7.7 C28.18 6.12, 32.51 4.55, 45 0 M23.86 7.7 C30.49 5.28, 37.12 2.87, 45 0" stroke="#1e1e1e" stroke-width="2" fill="none"></path></g><g transform="translate(795 100) rotate(0 22.5 0)"><path d="M23.86 -7.7 C28.18 -6.12, 32.51 -4.55, 45 0 M23.86 -7.7 C30.49 -5.28, 37.12 -2.87, 45 0" stroke="#1e1e1e" stroke-width="2" fill="none"></path></g></g><mask></mask><g stroke-linecap="round" transform="translate(845 60) rotate(0 100 40)"><path d="M20 0 C52.69 0, 85.38 0, 180 0 C193.33 0, 200 6.67, 200 20 C200 33.39, 200 46.78, 200 60 C200 73.33, 193.33 80, 180 80 C130.14 80, 80.28 80, 20 80 C6.67 80, 0 73.33, 0 60 C0 47.35, 0 34.7, 0 20 C0 6.67, 6.67 0, 20 0" stroke="none" stroke-width="0" fill="#00BCD430"></path><path d="M20 0 C52.73 0, 85.45 0, 180 0 M20 0 C81.72 0, 143.44 0, 180 0 M180 0 C193.33 0, 200 6.67, 200 20 M180 0 C193.33 0, 200 6.67, 200 20 M200 20 C200 31.79, 200 43.59, 200 60 M200 20 C200 28.27, 200 36.54, 200 60 M200 60 C200 73.33, 193.33 80, 180 80 M200 60 C200 73.33, 193.33 80, 180 80 M180 80 C140.82 80, 101.64 80, 20 80 M180 80 C116.9 80, 53.81 80, 20 80 M20 80 C6.67 80, 0 73.33, 0 60 M20 80 C6.67 80, 0 73.33, 0 60 M0 60 C0 45.43, 0 30.86, 0 20 M0 60 C0 49.71, 0 39.42, 0 20 M0 20 C0 6.67, 6.67 0, 20 0 M0 20 C0 6.67, 6.67 0, 20 0" stroke="#00BCD4" stroke-width="2" fill="none"></path></g><g transform="translate(860 68) rotate(0 85 10)"><text x="85" y="14.05029296875" font-family="Helvetica, sans-serif, Segoe UI Emoji" font-size="15px" fill="#00BCD4" text-anchor="middle" style="white-space: pre;" direction="ltr" dominant-baseline="alphabetic">Gerar Bytes Aleatórios</text></g><g transform="translate(860 93) rotate(0 85 18)"><text x="85" y="12.240234375" font-family="Helvetica, sans-serif, Segoe UI Emoji" font-size="12px" fill="#555555" text-anchor="middle" style="white-space: pre;" direction="ltr" dominant-baseline="alphabetic">Chave pública: 1952 bytes</text><text x="85" y="30.240234375" font-family="Helvetica, sans-serif, Segoe UI Emoji" font-size="12px" fill="#555555" text-anchor="middle" style="white-space: pre;" direction="ltr" dominant-baseline="alphabetic">Chave privada: 4000 bytes</text></g><g stroke-linecap="round"><g transform="translate(910 145) rotate(0 -40 25)"><path d="M0 0 C-16.36 10.23, -32.73 20.46, -80 50 M0 0 C-16.14 10.09, -32.28 20.17, -80 50" stroke="#4CAF50" stroke-width="2" fill="none"></path></g><g transform="translate(910 145) rotate(0 -40 25)"><path d="M-64.61 30.3 C-67.76 34.33, -70.91 38.36, -80 50 M-64.61 30.3 C-67.71 34.27, -70.82 38.25, -80 50" stroke="#4CAF50" stroke-width="2" fill="none"></path></g><g transform="translate(910 145) rotate(0 -40 25)"><path d="M-55.55 44.8 C-60.55 45.86, -65.55 46.93, -80 50 M-55.55 44.8 C-60.48 45.85, -65.41 46.9, -80 50" stroke="#4CAF50" stroke-width="2" fill="none"></path></g></g><mask></mask><g stroke-linecap="round" transform="translate(710 200) rotate(0 110 25)"><path d="M12.5 0 C67.93 0, 123.36 0, 207.5 0 C215.83 0, 220 4.17, 220 12.5 C220 18.4, 220 24.31, 220 37.5 C220 45.83, 215.83 50, 207.5 50 C158.11 50, 108.71 50, 12.5 50 C4.17 50, 0 45.83, 0 37.5 C0 30.27, 0 23.04, 0 12.5 C0 4.17, 4.17 0, 12.5 0" stroke="none" stroke-width="0" fill="#4CAF5030"></path><path d="M12.5 0 C52.39 0, 92.28 0, 207.5 0 M12.5 0 C65.88 0, 119.25 0, 207.5 0 M207.5 0 C215.83 0, 220 4.17, 220 12.5 M207.5 0 C215.83 0, 220 4.17, 220 12.5 M220 12.5 C220 21.62, 220 30.74, 220 37.5 M220 12.5 C220 21.62, 220 30.74, 220 37.5 M220 37.5 C220 45.83, 215.83 50, 207.5 50 M220 37.5 C220 45.83, 215.83 50, 207.5 50 M207.5 50 C147.53 50, 87.55 50, 12.5 50 M207.5 50 C157.26 50, 107.02 50, 12.5 50 M12.5 50 C4.17 50, 0 45.83, 0 37.5 M12.5 50 C4.17 50, 0 45.83, 0 37.5 M0 37.5 C0 29.71, 0 21.93, 0 12.5 M0 37.5 C0 28.43, 0 19.35, 0 12.5 M0 12.5 C0 4.17, 4.17 0, 12.5 0 M0 12.5 C0 4.17, 4.17 0, 12.5 0" stroke="#4CAF50" stroke-width="2" fill="none"></path></g><g transform="translate(725 212) rotate(0 95 13)"><text x="95" y="16.7802734375" font-family="Helvetica, sans-serif, Segoe UI Emoji" font-size="14px" fill="#4CAF50" text-anchor="middle" style="white-space: pre;" direction="ltr" dominant-baseline="alphabetic">Chave Privada → SecureStorage</text></g><g transform="translate(618 259) rotate(0 140 9)"><text x="140" y="12.51025390625" font-family="Helvetica, sans-serif, Segoe UI Emoji" font-size="13px" fill="#BA1A1A" text-anchor="middle" style="white-space: pre;" direction="ltr" dominant-baseline="alphabetic">⚠ Chave privada NUNCA sai do dispositivo</text></g><g stroke-linecap="round"><g transform="translate(980 145) rotate(0 40 25)"><path d="M0 0 C16.37 10.23, 32.73 20.46, 80 50 M0 0 C23.18 14.49, 46.35 28.97, 80 50" stroke="#FF9800" stroke-width="2" fill="none"></path></g><g transform="translate(980 145) rotate(0 40 25)"><path d="M55.55 44.8 C60.55 45.86, 65.55 46.93, 80 50 M55.55 44.8 C62.63 46.31, 69.72 47.81, 80 50" stroke="#FF9800" stroke-width="2" fill="none"></path></g><g transform="translate(980 145) rotate(0 40 25)"><path d="M64.61 30.3 C67.76 34.33, 70.91 38.36, 80 50 M64.61 30.3 C69.07 36.01, 73.53 41.71, 80 50" stroke="#FF9800" stroke-width="2" fill="none"></path></g></g><mask></mask><g stroke-linecap="round" transform="translate(950 200) rotate(0 110 25)"><path d="M12.5 0 C83.52 0, 154.53 0, 207.5 0 C215.83 0, 220 4.17, 220 12.5 C220 20.94, 220 29.38, 220 37.5 C220 45.83, 215.83 50, 207.5 50 C130.48 50, 53.45 50, 12.5 50 C4.17 50, 0 45.83, 0 37.5 C0 30.95, 0 24.39, 0 12.5 C0 4.17, 4.17 0, 12.5 0" stroke="none" stroke-width="0" fill="#FF980030"></path><path d="M12.5 0 C52.39 0, 92.29 0, 207.5 0 M12.5 0 C83.03 0, 153.56 0, 207.5 0 M207.5 0 C215.83 0, 220 4.17, 220 12.5 M207.5 0 C215.83 0, 220 4.17, 220 12.5 M220 12.5 C220 18.37, 220 24.24, 220 37.5 M220 12.5 C220 20.57, 220 28.65, 220 37.5 M220 37.5 C220 45.83, 215.83 50, 207.5 50 M220 37.5 C220 45.83, 215.83 50, 207.5 50 M207.5 50 C135.3 50, 63.1 50, 12.5 50 M207.5 50 C144.92 50, 82.34 50, 12.5 50 M12.5 50 C4.17 50, 0 45.83, 0 37.5 M12.5 50 C4.17 50, 0 45.83, 0 37.5 M0 37.5 C0 31.03, 0 24.57, 0 12.5 M0 37.5 C0 30.79, 0 24.07, 0 12.5 M0 12.5 C0 4.17, 4.17 0, 12.5 0 M0 12.5 C0 4.17, 4.17 0, 12.5 0" stroke="#FF9800" stroke-width="2" fill="none"></path></g><g transform="translate(970 212) rotate(0 90 13)"><text x="90" y="16.7802734375" font-family="Helvetica, sans-serif, Segoe UI Emoji" font-size="14px" fill="#FF9800" text-anchor="middle" style="white-space: pre;" direction="ltr" dominant-baseline="alphabetic">Chave Pública → Firestore</text></g><g transform="translate(984 261) rotate(0 130 9)"><text x="130" y="12.51025390625" font-family="Helvetica, sans-serif, Segoe UI Emoji" font-size="13px" fill="#888888" text-anchor="middle" style="white-space: pre;" direction="ltr" dominant-baseline="alphabetic">Partilhada para verificação de assinaturas</text></g><g transform="translate(210 490) rotate(0 340 17.5)"><text x="340" y="25.060546875" font-family="Helvetica, sans-serif, Segoe UI Emoji" font-size="28px" fill="#1e1e1e" text-anchor="middle" style="white-space: pre;" direction="ltr" dominant-baseline="alphabetic">Processo de Assinatura Digital (CRYSTALS-Dilithium)</text></g><g stroke-linecap="round" transform="translate(10 555) rotate(0 85 35)"><path d="M17.5 0 C45.71 0, 73.91 0, 152.5 0 C164.17 0, 170 5.83, 170 17.5 C170 30.18, 170 42.87, 170 52.5 C170 64.17, 164.17 70, 152.5 70 C110 70, 67.5 70, 17.5 70 C5.83 70, 0 64.17, 0 52.5 C0 39.63, 0 26.77, 0 17.5 C0 5.83, 5.83 0, 17.5 0" stroke="none" stroke-width="0" fill="#6750A430"></path><path d="M17.5 0 C45.72 0, 73.93 0, 152.5 0 M17.5 0 C62.27 0, 107.04 0, 152.5 0 M152.5 0 C164.17 0, 170 5.83, 170 17.5 M152.5 0 C164.17 0, 170 5.83, 170 17.5 M170 17.5 C170 25.89, 170 34.27, 170 52.5 M170 17.5 C170 25.31, 170 33.12, 170 52.5 M170 52.5 C170 64.17, 164.17 70, 152.5 70 M170 52.5 C170 64.17, 164.17 70, 152.5 70 M152.5 70 C101.7 70, 50.9 70, 17.5 70 M152.5 70 C115.74 70, 78.98 70, 17.5 70 M17.5 70 C5.83 70, 0 64.17, 0 52.5 M17.5 70 C5.83 70, 0 64.17, 0 52.5 M0 52.5 C0 38.77, 0 25.04, 0 17.5 M0 52.5 C0 38.98, 0 25.47, 0 17.5 M0 17.5 C0 5.83, 5.83 0, 17.5 0 M0 17.5 C0 5.83, 5.83 0, 17.5 0" stroke="#6750A4" stroke-width="2" fill="none"></path></g><g transform="translate(30 562) rotate(0 65 10)"><text x="65" y="13.7802734375" font-family="Helvetica, sans-serif, Segoe UI Emoji" font-size="14px" fill="#6750A4" text-anchor="middle" style="white-space: pre;" direction="ltr" dominant-baseline="alphabetic">Dados da Transação</text></g><g transform="translate(22 585) rotate(0 73 9)"><text x="73" y="11.97021484375" font-family="Helvetica, sans-serif, Segoe UI Emoji" font-size="11px" fill="#555555" text-anchor="middle" style="white-space: pre;" direction="ltr" dominant-baseline="alphabetic">{from, to, amount, desc, ts}</text></g><g stroke-linecap="round"><g transform="translate(185 590) rotate(0 56.5 -0.5)"><path d="M0 0 C23.62 -0.21, 47.24 -0.42, 113 -1 M0 0 C39.28 -0.35, 78.56 -0.7, 113 -1" stroke="#1e1e1e" stroke-width="2" fill="none"></path></g><g transform="translate(185 590) rotate(0 56.5 -0.5)"><path d="M89.58 7.76 C94.48 5.93, 99.37 4.1, 113 -1 M89.58 7.76 C97.72 4.71, 105.86 1.67, 113 -1" stroke="#1e1e1e" stroke-width="2" fill="none"></path></g><g transform="translate(185 590) rotate(0 56.5 -0.5)"><path d="M89.43 -9.34 C94.36 -7.6, 99.28 -5.85, 113 -1 M89.43 -9.34 C97.62 -6.44, 105.82 -3.54, 113 -1" stroke="#1e1e1e" stroke-width="2" fill="none"></path></g></g><mask></mask><g transform="translate(185 570) rotate(0 44.5 8)"><text x="44.49999999999999" y="10.7001953125" font-family="Helvetica, sans-serif, Segoe UI Emoji" font-size="10px" fill="#555555" text-anchor="middle" style="white-space: pre;" direction="ltr" dominant-baseline="alphabetic">JSON.encode()</text></g><g stroke-linecap="round" transform="translate(302 555) rotate(0 75 30)"><path d="M15 0 C52.06 0, 89.13 0, 135 0 C145 0, 150 5, 150 15 C150 26.68, 150 38.35, 150 45 C150 55, 145 60, 135 60 C87.97 60, 40.94 60, 15 60 C5 60, 0 55, 0 45 C0 33.49, 0 21.97, 0 15 C0 5, 5 0, 15 0" stroke="none" stroke-width="0" fill="#6750A430"></path><path d="M15 0 C40.08 0, 65.17 0, 135 0 M15 0 C49.99 0, 84.98 0, 135 0 M135 0 C145 0, 150 5, 150 15 M135 0 C145 0, 150 5, 150 15 M150 15 C150 24.81, 150 34.63, 150 45 M150 15 C150 26.12, 150 37.24, 150 45 M150 45 C150 55, 145 60, 135 60 M150 45 C150 55, 145 60, 135 60 M135 60 C104.44 60, 73.88 60, 15 60 M135 60 C92.83 60, 50.66 60, 15 60 M15 60 C5 60, 0 55, 0 45 M15 60 C5 60, 0 55, 0 45 M0 45 C0 38.21, 0 31.42, 0 15 M0 45 C0 33.95, 0 22.9, 0 15 M0 15 C0 5, 5 0, 15 0 M0 15 C0 5, 5 0, 15 0" stroke="#6750A4" stroke-width="2" fill="none"></path></g><g transform="translate(317 572) rotate(0 60 13)"><text x="60" y="16.7802734375" font-family="Helvetica, sans-serif, Segoe UI Emoji" font-size="14px" fill="#6750A4" text-anchor="middle" style="white-space: pre;" direction="ltr" dominant-baseline="alphabetic">Codificação JSON</text></g><g transform="translate(462 559) rotate(0 35 8)"><text x="35" y="10.7001953125" font-family="Helvetica, sans-serif, Segoe UI Emoji" font-size="10px" fill="#555555" text-anchor="middle" style="white-space: pre;" direction="ltr" dominant-baseline="alphabetic">sign(privateKey)</text></g><g stroke-linecap="round" transform="translate(540 545) rotate(0 90 40)"><path d="M20 0 C74.43 0, 128.86 0, 160 0 C173.33 0, 180 6.67, 180 20 C180 31.63, 180 43.25, 180 60 C180 73.33, 173.33 80, 160 80 C113.3 80, 66.59 80, 20 80 C6.67 80, 0 73.33, 0 60 C0 45.73, 0 31.46, 0 20 C0 6.67, 6.67 0, 20 0" stroke="none" stroke-width="0" fill="#00BCD430"></path><path d="M20 0 C49.27 0, 78.53 0, 160 0 M20 0 C73.14 0, 126.28 0, 160 0 M160 0 C173.33 0, 180 6.67, 180 20 M160 0 C173.33 0, 180 6.67, 180 20 M180 20 C180 35.89, 180 51.77, 180 60 M180 20 C180 33.15, 180 46.3, 180 60 M180 60 C180 73.33, 173.33 80, 160 80 M180 60 C180 73.33, 173.33 80, 160 80 M160 80 C115.57 80, 71.14 80, 20 80 M160 80 C129.94 80, 99.89 80, 20 80 M20 80 C6.67 80, 0 73.33, 0 60 M20 80 C6.67 80, 0 73.33, 0 60 M0 60 C0 45.06, 0 30.12, 0 20 M0 60 C0 49.04, 0 38.09, 0 20 M0 20 C0 6.67, 6.67 0, 20 0 M0 20 C0 6.67, 6.67 0, 20 0" stroke="#00BCD4" stroke-width="2" fill="none"></path></g><g stroke-linecap="round"><g transform="translate(447.5 585.0014399827836) rotate(0 43.75 -0.0007199913918043421)"><path d="M0 0 C18.29 0, 36.58 0, 87.5 0 M0 0 C20.61 0, 41.23 0, 87.5 0" stroke="#1e1e1e" stroke-width="2" fill="none"></path></g><g transform="translate(447.5 585.0014399827836) rotate(0 43.75 -0.0007199913918043421)"><path d="M64.01 8.55 C68.92 6.76, 73.83 4.97, 87.5 0 M64.01 8.55 C69.54 6.54, 75.08 4.52, 87.5 0" stroke="#1e1e1e" stroke-width="2" fill="none"></path></g><g transform="translate(447.5 585.0014399827836) rotate(0 43.75 -0.0007199913918043421)"><path d="M64.01 -8.55 C68.92 -6.76, 73.83 -4.98, 87.5 0 M64.01 -8.55 C69.54 -6.54, 75.08 -4.52, 87.5 0" stroke="#1e1e1e" stroke-width="2" fill="none"></path></g></g><mask></mask><g transform="translate(560 553) rotate(0 70 10)"><text x="70" y="13.7802734375" font-family="Helvetica, sans-serif, Segoe UI Emoji" font-size="14px" fill="#00BCD4" text-anchor="middle" style="white-space: pre;" direction="ltr" dominant-baseline="alphabetic">Assinatura Dilithium</text></g><g transform="translate(560 578) rotate(0 70 18)"><text x="70" y="12.240234375" font-family="Helvetica, sans-serif, Segoe UI Emoji" font-size="12px" fill="#555555" text-anchor="middle" style="white-space: pre;" direction="ltr" dominant-baseline="alphabetic">Saída: 3293 bytes</text><text x="70" y="30.240234375" font-family="Helvetica, sans-serif, Segoe UI Emoji" font-size="12px" fill="#555555" text-anchor="middle" style="white-space: pre;" direction="ltr" dominant-baseline="alphabetic">Nível 3 (192 bits)</text></g><g transform="translate(735 557) rotate(0 35 8)"><text x="35" y="10.7001953125" font-family="Helvetica, sans-serif, Segoe UI Emoji" font-size="10px" fill="#555555" text-anchor="middle" style="white-space: pre;" direction="ltr" dominant-baseline="alphabetic">base64Encode()</text></g><g stroke-linecap="round" transform="translate(824 551) rotate(0 80 30)"><path d="M15 0 C52.53 0, 90.07 0, 145 0 C155 0, 160 5, 160 15 C160 24.52, 160 34.04, 160 45 C160 55, 155 60, 145 60 C117.61 60, 90.22 60, 15 60 C5 60, 0 55, 0 45 C0 33.81, 0 22.62, 0 15 C0 5, 5 0, 15 0" stroke="none" stroke-width="0" fill="#00BCD430"></path><path d="M15 0 C42.18 0, 69.36 0, 145 0 M15 0 C59.14 0, 103.28 0, 145 0 M145 0 C155 0, 160 5, 160 15 M145 0 C155 0, 160 5, 160 15 M160 15 C160 23.54, 160 32.08, 160 45 M160 15 C160 23.29, 160 31.58, 160 45 M160 45 C160 55, 155 60, 145 60 M160 45 C160 55, 155 60, 145 60 M145 60 C93.56 60, 42.11 60, 15 60 M145 60 C106.81 60, 68.62 60, 15 60 M15 60 C5 60, 0 55, 0 45 M15 60 C5 60, 0 55, 0 45 M0 45 C0 38.77, 0 32.54, 0 15 M0 45 C0 37.32, 0 29.64, 0 15 M0 15 C0 5, 5 0, 15 0 M0 15 C0 5, 5 0, 15 0" stroke="#00BCD4" stroke-width="2" fill="none"></path></g><g stroke-linecap="round"><g transform="translate(725 585) rotate(0 51 0)"><path d="M0 0 C21.32 0, 42.65 0, 102 0 M0 0 C40.35 0, 80.69 0, 102 0" stroke="#1e1e1e" stroke-width="2" fill="none"></path></g><g transform="translate(725 585) rotate(0 51 0)"><path d="M78.51 8.55 C83.42 6.76, 88.33 4.98, 102 0 M78.51 8.55 C87.8 5.17, 97.09 1.79, 102 0" stroke="#1e1e1e" stroke-width="2" fill="none"></path></g><g transform="translate(725 585) rotate(0 51 0)"><path d="M78.51 -8.55 C83.42 -6.76, 88.33 -4.98, 102 0 M78.51 -8.55 C87.8 -5.17, 97.09 -1.79, 102 0" stroke="#1e1e1e" stroke-width="2" fill="none"></path></g></g><mask></mask><g transform="translate(844 568) rotate(0 60 13)"><text x="60" y="16.7802734375" font-family="Helvetica, sans-serif, Segoe UI Emoji" font-size="14px" fill="#00BCD4" text-anchor="middle" style="white-space: pre;" direction="ltr" dominant-baseline="alphabetic">Assinatura Base64</text></g><g stroke-linecap="round"><g transform="translate(989 581) rotate(0 27.5 0)"><path d="M0 0 C11.5 0, 23 0, 55 0 M0 0 C15.59 0, 31.19 0, 55 0" stroke="#1e1e1e" stroke-width="2" fill="none"></path></g><g transform="translate(989 581) rotate(0 27.5 0)"><path d="M31.51 8.55 C36.42 6.76, 41.33 4.98, 55 0 M31.51 8.55 C38.17 6.13, 44.83 3.7, 55 0" stroke="#1e1e1e" stroke-width="2" fill="none"></path></g><g transform="translate(989 581) rotate(0 27.5 0)"><path d="M31.51 -8.55 C36.42 -6.76, 41.33 -4.98, 55 0 M31.51 -8.55 C38.17 -6.13, 44.83 -3.7, 55 0" stroke="#1e1e1e" stroke-width="2" fill="none"></path></g></g><mask></mask><g stroke-linecap="round" transform="translate(1049 541) rotate(0 95 40)"><path d="M20 0 C72.3 0, 124.6 0, 170 0 C183.33 0, 190 6.67, 190 20 C190 31.74, 190 43.48, 190 60 C190 73.33, 183.33 80, 170 80 C137.45 80, 104.91 80, 20 80 C6.67 80, 0 73.33, 0 60 C0 47.89, 0 35.79, 0 20 C0 6.67, 6.67 0, 20 0" stroke="none" stroke-width="0" fill="#FF980030"></path><path d="M20 0 C51.36 0, 82.72 0, 170 0 M20 0 C73.33 0, 126.65 0, 170 0 M170 0 C183.33 0, 190 6.67, 190 20 M170 0 C183.33 0, 190 6.67, 190 20 M190 20 C190 33.49, 190 46.97, 190 60 M190 20 C190 29.8, 190 39.6, 190 60 M190 60 C190 73.33, 183.33 80, 170 80 M190 60 C190 73.33, 183.33 80, 170 80 M170 80 C133.59 80, 97.18 80, 20 80 M170 80 C118.81 80, 67.63 80, 20 80 M20 80 C6.67 80, 0 73.33, 0 60 M20 80 C6.67 80, 0 73.33, 0 60 M0 60 C0 49.28, 0 38.56, 0 20 M0 60 C0 48.59, 0 37.18, 0 20 M0 20 C0 6.67, 6.67 0, 20 0 M0 20 C0 6.67, 6.67 0, 20 0" stroke="#FF9800" stroke-width="2" fill="none"></path></g><g transform="translate(1069 549) rotate(0 75 10)"><text x="75" y="13.7802734375" font-family="Helvetica, sans-serif, Segoe UI Emoji" font-size="14px" fill="#FF9800" text-anchor="middle" style="white-space: pre;" direction="ltr" dominant-baseline="alphabetic">Guardar no Firestore</text></g><g transform="translate(1069 574) rotate(0 75 18)"><text x="75" y="12.240234375" font-family="Helvetica, sans-serif, Segoe UI Emoji" font-size="12px" fill="#555555" text-anchor="middle" style="white-space: pre;" direction="ltr" dominant-baseline="alphabetic">pqcSignature: '...'</text><text x="75" y="30.240234375" font-family="Helvetica, sans-serif, Segoe UI Emoji" font-size="12px" fill="#555555" text-anchor="middle" style="white-space: pre;" direction="ltr" dominant-baseline="alphabetic">isEncrypted: true</text></g><g transform="translate(310 840) rotate(0 260 17.5)"><text x="260" y="25.060546875" font-family="Helvetica, sans-serif, Segoe UI Emoji" font-size="28px" fill="#1e1e1e" text-anchor="middle" style="white-space: pre;" direction="ltr" dominant-baseline="alphabetic">Processo de Verificação de Assinatura</text></g><g stroke-linecap="round" transform="translate(110 900) rotate(0 85 30)"><path d="M15 0 C70.08 0, 125.16 0, 155 0 C165 0, 170 5, 170 15 C170 24.55, 170 34.1, 170 45 C170 55, 165 60, 155 60 C107.85 60, 60.7 60, 15 60 C5 60, 0 55, 0 45 C0 38.76, 0 32.51, 0 15 C0 5, 5 0, 15 0" stroke="none" stroke-width="0" fill="#FF980030"></path><path d="M15 0 C44.89 0, 74.78 0, 155 0 M15 0 C60.56 0, 106.12 0, 155 0 M155 0 C165 0, 170 5, 170 15 M155 0 C165 0, 170 5, 170 15 M170 15 C170 25.26, 170 35.52, 170 45 M170 15 C170 25.35, 170 35.71, 170 45 M170 45 C170 55, 165 60, 155 60 M170 45 C170 55, 165 60, 155 60 M155 60 C120.17 60, 85.34 60, 15 60 M155 60 C114.03 60, 73.06 60, 15 60 M15 60 C5 60, 0 55, 0 45 M15 60 C5 60, 0 55, 0 45 M0 45 C0 38.95, 0 32.91, 0 15 M0 45 C0 38.91, 0 32.83, 0 15 M0 15 C0 5, 5 0, 15 0 M0 15 C0 5, 5 0, 15 0" stroke="#FF9800" stroke-width="2" fill="none"></path></g><g transform="translate(130 908) rotate(0 65 10)"><text x="65" y="13.7802734375" font-family="Helvetica, sans-serif, Segoe UI Emoji" font-size="14px" fill="#FF9800" text-anchor="middle" style="white-space: pre;" direction="ltr" dominant-baseline="alphabetic">Obter Assinatura</text></g><g transform="translate(150 930) rotate(0 45 8)"><text x="45" y="11.240234375" font-family="Helvetica, sans-serif, Segoe UI Emoji" font-size="12px" fill="#888888" text-anchor="middle" style="white-space: pre;" direction="ltr" dominant-baseline="alphabetic">do Firestore</text></g><g stroke-linecap="round"><g transform="translate(285 930) rotate(0 27.5 0)"><path d="M0 0 C11.74 0, 23.49 0, 55 0 M0 0 C18.78 0, 37.56 0, 55 0" stroke="#1e1e1e" stroke-width="2" fill="none"></path></g><g transform="translate(285 930) rotate(0 27.5 0)"><path d="M31.51 8.55 C36.52 6.72, 41.54 4.9, 55 0 M31.51 8.55 C39.53 5.63, 47.55 2.71, 55 0" stroke="#1e1e1e" stroke-width="2" fill="none"></path></g><g transform="translate(285 930) rotate(0 27.5 0)"><path d="M31.51 -8.55 C36.52 -6.72, 41.54 -4.9, 55 0 M31.51 -8.55 C39.53 -5.63, 47.55 -2.71, 55 0" stroke="#1e1e1e" stroke-width="2" fill="none"></path></g></g><mask></mask><g stroke-linecap="round" transform="translate(345 900) rotate(0 85 30)"><path d="M15 0 C53.27 0, 91.54 0, 155 0 C165 0, 170 5, 170 15 C170 21.59, 170 28.18, 170 45 C170 55, 165 60, 155 60 C116.01 60, 77.03 60, 15 60 C5 60, 0 55, 0 45 C0 33.57, 0 22.13, 0 15 C0 5, 5 0, 15 0" stroke="none" stroke-width="0" fill="#00BCD430"></path><path d="M15 0 C44.89 0, 74.78 0, 155 0 M15 0 C44.88 0, 74.76 0, 155 0 M155 0 C165 0, 170 5, 170 15 M155 0 C165 0, 170 5, 170 15 M170 15 C170 21.36, 170 27.72, 170 45 M170 15 C170 24.1, 170 33.19, 170 45 M170 45 C170 55, 165 60, 155 60 M170 45 C170 55, 165 60, 155 60 M155 60 C111.39 60, 67.79 60, 15 60 M155 60 C105.17 60, 55.34 60, 15 60 M15 60 C5 60, 0 55, 0 45 M15 60 C5 60, 0 55, 0 45 M0 45 C0 34.54, 0 24.07, 0 15 M0 45 C0 35.74, 0 26.49, 0 15 M0 15 C0 5, 5 0, 15 0 M0 15 C0 5, 5 0, 15 0" stroke="#00BCD4" stroke-width="2" fill="none"></path></g><g transform="translate(365 918) rotate(0 65 13)"><text x="65" y="16.7802734375" font-family="Helvetica, sans-serif, Segoe UI Emoji" font-size="14px" fill="#00BCD4" text-anchor="middle" style="white-space: pre;" direction="ltr" dominant-baseline="alphabetic">Descodificar Base64</text></g><g stroke-linecap="round"><g transform="translate(520 930) rotate(0 27.5 0)"><path d="M0 0 C11.74 0, 23.49 0, 55 0 M0 0 C19.66 0, 39.31 0, 55 0" stroke="#1e1e1e" stroke-width="2" fill="none"></path></g><g transform="translate(520 930) rotate(0 27.5 0)"><path d="M31.51 8.55 C36.52 6.72, 41.54 4.9, 55 0 M31.51 8.55 C39.9 5.49, 48.3 2.44, 55 0" stroke="#1e1e1e" stroke-width="2" fill="none"></path></g><g transform="translate(520 930) rotate(0 27.5 0)"><path d="M31.51 -8.55 C36.52 -6.72, 41.54 -4.9, 55 0 M31.51 -8.55 C39.9 -5.49, 48.3 -2.44, 55 0" stroke="#1e1e1e" stroke-width="2" fill="none"></path></g></g><mask></mask><g stroke-linecap="round" transform="translate(580 900) rotate(0 90 30)"><path d="M15 0 C65 0, 114.99 0, 165 0 C175 0, 180 5, 180 15 C180 26.87, 180 38.75, 180 45 C180 55, 175 60, 165 60 C122.29 60, 79.58 60, 15 60 C5 60, 0 55, 0 45 C0 35.67, 0 26.35, 0 15 C0 5, 5 0, 15 0" stroke="none" stroke-width="0" fill="#00BCD430"></path><path d="M15 0 C47.03 0, 79.06 0, 165 0 M15 0 C49.41 0, 83.82 0, 165 0 M165 0 C175 0, 180 5, 180 15 M165 0 C175 0, 180 5, 180 15 M180 15 C180 22.93, 180 30.87, 180 45 M180 15 C180 23.15, 180 31.31, 180 45 M180 45 C180 55, 175 60, 165 60 M180 45 C180 55, 175 60, 165 60 M165 60 C111.23 60, 57.46 60, 15 60 M165 60 C134.49 60, 103.99 60, 15 60 M15 60 C5 60, 0 55, 0 45 M15 60 C5 60, 0 55, 0 45 M0 45 C0 38.72, 0 32.45, 0 15 M0 45 C0 34.87, 0 24.73, 0 15 M0 15 C0 5, 5 0, 15 0 M0 15 C0 5, 5 0, 15 0" stroke="#00BCD4" stroke-width="2" fill="none"></path></g><g transform="translate(600 908) rotate(0 70 10)"><text x="70" y="13.7802734375" font-family="Helvetica, sans-serif, Segoe UI Emoji" font-size="14px" fill="#00BCD4" text-anchor="middle" style="white-space: pre;" direction="ltr" dominant-baseline="alphabetic">Obter Chave Pública</text></g><g transform="translate(620 930) rotate(0 50 8)"><text x="50" y="11.240234375" font-family="Helvetica, sans-serif, Segoe UI Emoji" font-size="12px" fill="#888888" text-anchor="middle" style="white-space: pre;" direction="ltr" dominant-baseline="alphabetic">do remetente</text></g><g stroke-linecap="round"><g transform="translate(765 930) rotate(0 27.5 0)"><path d="M0 0 C11.74 0, 23.49 0, 55 0 M0 0 C13.5 0, 26.99 0, 55 0" stroke="#1e1e1e" stroke-width="2" fill="none"></path></g><g transform="translate(765 930) rotate(0 27.5 0)"><path d="M31.51 8.55 C36.52 6.72, 41.54 4.9, 55 0 M31.51 8.55 C37.27 6.45, 43.04 4.35, 55 0" stroke="#1e1e1e" stroke-width="2" fill="none"></path></g><g transform="translate(765 930) rotate(0 27.5 0)"><path d="M31.51 -8.55 C36.52 -6.72, 41.54 -4.9, 55 0 M31.51 -8.55 C37.27 -6.45, 43.04 -4.35, 55 0" stroke="#1e1e1e" stroke-width="2" fill="none"></path></g></g><mask></mask><g stroke-linecap="round" transform="translate(825 890) rotate(0 100 40)"><path d="M20 0 C54.12 0, 88.24 0, 180 0 C193.33 0, 200 6.67, 200 20 C200 31.89, 200 43.78, 200 60 C200 73.33, 193.33 80, 180 80 C143.77 80, 107.55 80, 20 80 C6.67 80, 0 73.33, 0 60 C0 48.65, 0 37.3, 0 20 C0 6.67, 6.67 0, 20 0" stroke="none" stroke-width="0" fill="#00BCD430"></path><path d="M20 0 C54.17 0, 88.33 0, 180 0 M20 0 C70.78 0, 121.56 0, 180 0 M180 0 C193.33 0, 200 6.67, 200 20 M180 0 C193.33 0, 200 6.67, 200 20 M200 20 C200 33.38, 200 46.76, 200 60 M200 20 C200 29.2, 200 38.39, 200 60 M200 60 C200 73.33, 193.33 80, 180 80 M200 60 C200 73.33, 193.33 80, 180 80 M180 80 C144.61 80, 109.23 80, 20 80 M180 80 C137.34 80, 94.67 80, 20 80 M20 80 C6.67 80, 0 73.33, 0 60 M20 80 C6.67 80, 0 73.33, 0 60 M0 60 C0 45.74, 0 31.48, 0 20 M0 60 C0 50.26, 0 40.53, 0 20 M0 20 C0 6.67, 6.67 0, 20 0 M0 20 C0 6.67, 6.67 0, 20 0" stroke="#00BCD4" stroke-width="2" fill="none"></path></g><g transform="translate(850 900) rotate(0 75 10)"><text x="75" y="14.05029296875" font-family="Helvetica, sans-serif, Segoe UI Emoji" font-size="15px" fill="#00BCD4" text-anchor="middle" style="white-space: pre;" direction="ltr" dominant-baseline="alphabetic">Verificar Dilithium</text></g><g transform="translate(838 928) rotate(0 87.5 8)"><text x="87.5" y="10.97021484375" font-family="Helvetica, sans-serif, Segoe UI Emoji" font-size="11px" fill="#555555" text-anchor="middle" style="white-space: pre;" direction="ltr" dominant-baseline="alphabetic">verify(signature, publicKey, data)</text></g><g stroke-linecap="round"><g transform="translate(890 975) rotate(0 -40 22.5)"><path d="M0 0 C-17.08 9.61, -34.17 19.22, -80 45 M0 0 C-26.67 15, -53.34 30, -80 45" stroke="#4CAF50" stroke-width="2" fill="none"></path></g><g transform="translate(890 975) rotate(0 -40 22.5)"><path d="M-63.72 26.03 C-67.19 30.08, -70.67 34.13, -80 45 M-63.72 26.03 C-69.14 32.35, -74.57 38.68, -80 45" stroke="#4CAF50" stroke-width="2" fill="none"></path></g><g transform="translate(890 975) rotate(0 -40 22.5)"><path d="M-55.33 40.94 C-60.6 41.8, -65.87 42.67, -80 45 M-55.33 40.94 C-63.56 42.29, -71.78 43.65, -80 45" stroke="#4CAF50" stroke-width="2" fill="none"></path></g></g><mask></mask><g stroke-linecap="round" transform="translate(700 1025) rotate(0 100 27.5)"><path d="M13.75 0 C64.33 0, 114.9 0, 186.25 0 C195.42 0, 200 4.58, 200 13.75 C200 24.71, 200 35.67, 200 41.25 C200 50.42, 195.42 55, 186.25 55 C122.75 55, 59.25 55, 13.75 55 C4.58 55, 0 50.42, 0 41.25 C0 34.19, 0 27.13, 0 13.75 C0 4.58, 4.58 0, 13.75 0" stroke="none" stroke-width="0" fill="#4CAF5030"></path><path d="M13.75 0 C50.59 0, 87.43 0, 186.25 0 M13.75 0 C49.17 0, 84.59 0, 186.25 0 M186.25 0 C195.42 0, 200 4.58, 200 13.75 M186.25 0 C195.42 0, 200 4.58, 200 13.75 M200 13.75 C200 19.37, 200 25, 200 41.25 M200 13.75 C200 24.42, 200 35.09, 200 41.25 M200 41.25 C200 50.42, 195.42 55, 186.25 55 M200 41.25 C200 50.42, 195.42 55, 186.25 55 M186.25 55 C137.28 55, 88.32 55, 13.75 55 M186.25 55 C129.34 55, 72.42 55, 13.75 55 M13.75 55 C4.58 55, 0 50.42, 0 41.25 M13.75 55 C4.58 55, 0 50.42, 0 41.25 M0 41.25 C0 32.9, 0 24.55, 0 13.75 M0 41.25 C0 31.65, 0 22.05, 0 13.75 M0 13.75 C0 4.58, 4.58 0, 13.75 0 M0 13.75 C0 4.58, 4.58 0, 13.75 0" stroke="#4CAF50" stroke-width="2" fill="none"></path></g><g transform="translate(750 1030) rotate(0 50 11)"><text x="50" y="15.3203125" font-family="Helvetica, sans-serif, Segoe UI Emoji" font-size="16px" fill="#4CAF50" text-anchor="middle" style="white-space: pre;" direction="ltr" dominant-baseline="alphabetic">VÁLIDA ✓</text></g><g transform="translate(716 1055) rotate(0 84 8)"><text x="84" y="11.240234375" font-family="Helvetica, sans-serif, Segoe UI Emoji" font-size="12px" fill="#4CAF50" text-anchor="middle" style="white-space: pre;" direction="ltr" dominant-baseline="alphabetic">Transação autêntica e íntegra</text></g><g stroke-linecap="round"><g transform="translate(960 975) rotate(0 40 22.5)"><path d="M0 0 C17.09 9.61, 34.17 19.22, 80 45 M0 0 C17.71 9.96, 35.41 19.92, 80 45" stroke="#BA1A1A" stroke-width="2" fill="none"></path></g><g transform="translate(960 975) rotate(0 40 22.5)"><path d="M55.33 40.94 C60.6 41.8, 65.87 42.67, 80 45 M55.33 40.94 C60.79 41.83, 66.25 42.73, 80 45" stroke="#BA1A1A" stroke-width="2" fill="none"></path></g><g transform="translate(960 975) rotate(0 40 22.5)"><path d="M63.72 26.03 C67.19 30.08, 70.67 34.13, 80 45 M63.72 26.03 C67.32 30.23, 70.92 34.43, 80 45" stroke="#BA1A1A" stroke-width="2" fill="none"></path></g></g><mask></mask><g stroke-linecap="round" transform="translate(940 1025) rotate(0 100 27.5)"><path d="M13.75 0 C78.11 0, 142.48 0, 186.25 0 C195.42 0, 200 4.58, 200 13.75 C200 22, 200 30.25, 200 41.25 C200 50.42, 195.42 55, 186.25 55 C132.81 55, 79.37 55, 13.75 55 C4.58 55, 0 50.42, 0 41.25 C0 34.93, 0 28.62, 0 13.75 C0 4.58, 4.58 0, 13.75 0" stroke="none" stroke-width="0" fill="#BA1A1A20"></path><path d="M13.75 0 C50.59 0, 87.44 0, 186.25 0 M13.75 0 C64.35 0, 114.94 0, 186.25 0 M186.25 0 C195.42 0, 200 4.58, 200 13.75 M186.25 0 C195.42 0, 200 4.58, 200 13.75 M200 13.75 C200 21.3, 200 28.85, 200 41.25 M200 13.75 C200 23.27, 200 32.78, 200 41.25 M200 41.25 C200 50.42, 195.42 55, 186.25 55 M200 41.25 C200 50.42, 195.42 55, 186.25 55 M186.25 55 C126.47 55, 66.69 55, 13.75 55 M186.25 55 C118.42 55, 50.59 55, 13.75 55 M13.75 55 C4.58 55, 0 50.42, 0 41.25 M13.75 55 C4.58 55, 0 50.42, 0 41.25 M0 41.25 C0 34.35, 0 27.45, 0 13.75 M0 41.25 C0 34.24, 0 27.24, 0 13.75 M0 13.75 C0 4.58, 4.58 0, 13.75 0 M0 13.75 C0 4.58, 4.58 0, 13.75 0" stroke="#BA1A1A" stroke-width="2" fill="none"></path></g><g transform="translate(985 1030) rotate(0 55 11)"><text x="55" y="15.3203125" font-family="Helvetica, sans-serif, Segoe UI Emoji" font-size="16px" fill="#BA1A1A" text-anchor="middle" style="white-space: pre;" direction="ltr" dominant-baseline="alphabetic">INVÁLIDA ✗</text></g><g transform="translate(970 1055) rotate(0 70 8)"><text x="70" y="11.240234375" font-family="Helvetica, sans-serif, Segoe UI Emoji" font-size="12px" fill="#BA1A1A" text-anchor="middle" style="white-space: pre;" direction="ltr" dominant-baseline="alphabetic">Transação rejeitada</text></g><g transform="translate(410 1190) rotate(0 175 17.5)"><text x="175" y="25.060546875" font-family="Helvetica, sans-serif, Segoe UI Emoji" font-size="28px" fill="#1e1e1e" text-anchor="middle" style="white-space: pre;" direction="ltr" dominant-baseline="alphabetic">Diagrama de Casos de Uso</text></g><g stroke-linecap="round" transform="translate(310 1250) rotate(0 280 340)"><path d="M32 0 C140.12 0, 248.25 0, 528 0 M528 0 C549.33 0, 560 10.67, 560 32 M560 32 C560 186.17, 560 340.33, 560 648 M560 648 C560 669.33, 549.33 680, 528 680 M528 680 C406.86 680, 285.72 680, 32 680 M32 680 C10.67 680, 0 669.33, 0 648 M0 648 C0 451, 0 253.99, 0 32 M0 32 C0 10.67, 10.67 0, 32 0" stroke="#1e1e1e" stroke-width="2.5" fill="none" stroke-dasharray="8 10"></path></g><g transform="translate(480 1258) rotate(0 110 12)"><text x="110" y="16.8603515625" font-family="Helvetica, sans-serif, Segoe UI Emoji" font-size="18px" fill="#1e1e1e" text-anchor="middle" style="white-space: pre;" direction="ltr" dominant-baseline="alphabetic">Sistema BJBank</text></g><g stroke-linecap="round" transform="translate(100 1470) rotate(0 60 20)"><path d="M10 0 C31.79 0, 53.58 0, 110 0 C116.67 0, 120 3.33, 120 10 C120 16.5, 120 22.99, 120 30 C120 36.67, 116.67 40, 110 40 C87.04 40, 64.08 40, 10 40 C3.33 40, 0 36.67, 0 30 C0 23.3, 0 16.59, 0 10 C0 3.33, 3.33 0, 10 0" stroke="none" stroke-width="0" fill="#6750A430"></path><path d="M10 0 C31.8 0, 53.6 0, 110 0 M10 0 C36.32 0, 62.65 0, 110 0 M110 0 C116.67 0, 120 3.33, 120 10 M110 0 C116.67 0, 120 3.33, 120 10 M120 10 C120 15.58, 120 21.17, 120 30 M120 10 C120 14.92, 120 19.85, 120 30 M120 30 C120 36.67, 116.67 40, 110 40 M120 30 C120 36.67, 116.67 40, 110 40 M110 40 C74.74 40, 39.48 40, 10 40 M110 40 C75.54 40, 41.08 40, 10 40 M10 40 C3.33 40, 0 36.67, 0 30 M10 40 C3.33 40, 0 36.67, 0 30 M0 30 C0 22.31, 0 14.62, 0 10 M0 30 C0 22.55, 0 15.11, 0 10 M0 10 C0 3.33, 3.33 0, 10 0 M0 10 C0 3.33, 3.33 0, 10 0" stroke="#6750A4" stroke-width="2" fill="none"></path></g><g transform="translate(115 1478) rotate(0 45 12)"><text x="45" y="16.05029296875" font-family="Helvetica, sans-serif, Segoe UI Emoji" font-size="15px" fill="#6750A4" text-anchor="middle" style="white-space: pre;" direction="ltr" dominant-baseline="alphabetic">Utilizador</text></g><g stroke-linecap="round" transform="translate(960 1410) rotate(0 60 20)"><path d="M10 0 C35.78 0, 61.57 0, 110 0 C116.67 0, 120 3.33, 120 10 C120 17.51, 120 25.02, 120 30 C120 36.67, 116.67 40, 110 40 C79.96 40, 49.91 40, 10 40 C3.33 40, 0 36.67, 0 30 C0 25.57, 0 21.13, 0 10 C0 3.33, 3.33 0, 10 0" stroke="none" stroke-width="0" fill="#00BCD430"></path><path d="M10 0 C31.8 0, 53.6 0, 110 0 M10 0 C30.72 0, 51.45 0, 110 0 M110 0 C116.67 0, 120 3.33, 120 10 M110 0 C116.67 0, 120 3.33, 120 10 M120 10 C120 16.28, 120 22.57, 120 30 M120 10 C120 14.51, 120 19.01, 120 30 M120 30 C120 36.67, 116.67 40, 110 40 M120 30 C120 36.67, 116.67 40, 110 40 M110 40 C71.61 40, 33.21 40, 10 40 M110 40 C72.38 40, 34.75 40, 10 40 M10 40 C3.33 40, 0 36.67, 0 30 M10 40 C3.33 40, 0 36.67, 0 30 M0 30 C0 22.84, 0 15.67, 0 10 M0 30 C0 23.5, 0 16.99, 0 10 M0 10 C0 3.33, 3.33 0, 10 0 M0 10 C0 3.33, 3.33 0, 10 0" stroke="#00BCD4" stroke-width="2" fill="none"></path></g><g transform="translate(971 1420) rotate(0 45 12)"><text x="45" y="15.7802734375" font-family="Helvetica, sans-serif, Segoe UI Emoji" font-size="14px" fill="#00BCD4" text-anchor="middle" style="white-space: pre;" direction="ltr" dominant-baseline="alphabetic">Sistema PQC</text></g><g stroke-linecap="round" transform="translate(967 1715) rotate(0 60 20)"><path d="M10 0 C39.78 0, 69.56 0, 110 0 C116.67 0, 120 3.33, 120 10 C120 14.53, 120 19.05, 120 30 C120 36.67, 116.67 40, 110 40 C72.87 40, 35.74 40, 10 40 C3.33 40, 0 36.67, 0 30 C0 23.84, 0 17.67, 0 10 C0 3.33, 3.33 0, 10 0" stroke="none" stroke-width="0" fill="#FF980030"></path><path d="M10 0 C31.8 0, 53.6 0, 110 0 M10 0 C45.12 0, 80.24 0, 110 0 M110 0 C116.67 0, 120 3.33, 120 10 M110 0 C116.67 0, 120 3.33, 120 10 M120 10 C120 16.98, 120 23.97, 120 30 M120 10 C120 14.09, 120 18.17, 120 30 M120 30 C120 36.67, 116.67 40, 110 40 M120 30 C120 36.67, 116.67 40, 110 40 M110 40 C88.47 40, 66.94 40, 10 40 M110 40 C89.21 40, 68.42 40, 10 40 M10 40 C3.33 40, 0 36.67, 0 30 M10 40 C3.33 40, 0 36.67, 0 30 M0 30 C0 23.37, 0 16.73, 0 10 M0 30 C0 24.44, 0 18.88, 0 10 M0 10 C0 3.33, 3.33 0, 10 0 M0 10 C0 3.33, 3.33 0, 10 0" stroke="#FF9800" stroke-width="2" fill="none"></path></g><g transform="translate(993 1722) rotate(0 35 12)"><text x="35" y="16.05029296875" font-family="Helvetica, sans-serif, Segoe UI Emoji" font-size="15px" fill="#FF9800" text-anchor="middle" style="white-space: pre;" direction="ltr" dominant-baseline="alphabetic">Firebase</text></g><g stroke-linecap="round" transform="translate(370 1295) rotate(0 90 20)"><path d="M10 0 C64.05 0, 118.09 0, 170 0 C176.67 0, 180 3.33, 180 10 C180 15.54, 180 21.08, 180 30 C180 36.67, 176.67 40, 170 40 C131.26 40, 92.52 40, 10 40 C3.33 40, 0 36.67, 0 30 C0 22.11, 0 14.21, 0 10 C0 3.33, 3.33 0, 10 0" stroke="none" stroke-width="0" fill="#ffffff"></path><path d="M10 0 C44.88 0, 79.77 0, 170 0 M10 0 C57.23 0, 104.46 0, 170 0 M170 0 C176.67 0, 180 3.33, 180 10 M170 0 C176.67 0, 180 3.33, 180 10 M180 10 C180 17.68, 180 25.37, 180 30 M180 10 C180 17.67, 180 25.33, 180 30 M180 30 C180 36.67, 176.67 40, 170 40 M180 30 C180 36.67, 176.67 40, 170 40 M170 40 C130.54 40, 91.08 40, 10 40 M170 40 C131.68 40, 93.35 40, 10 40 M10 40 C3.33 40, 0 36.67, 0 30 M10 40 C3.33 40, 0 36.67, 0 30 M0 30 C0 23.89, 0 17.79, 0 10 M0 30 C0 25.38, 0 20.77, 0 10 M0 10 C0 3.33, 3.33 0, 10 0 M0 10 C0 3.33, 3.33 0, 10 0" stroke="#1e1e1e" stroke-width="1" fill="none"></path></g><g transform="translate(410 1303) rotate(0 50 12)"><text x="50" y="15.51025390625" font-family="Helvetica, sans-serif, Segoe UI Emoji" font-size="13px" fill="#1e1e1e" text-anchor="middle" style="white-space: pre;" direction="ltr" dominant-baseline="alphabetic">Iniciar Sessão</text></g><g stroke-linecap="round" transform="translate(370 1345) rotate(0 90 20)"><path d="M10 0 C70.44 0, 130.88 0, 170 0 C176.67 0, 180 3.33, 180 10 C180 16.55, 180 23.11, 180 30 C180 36.67, 176.67 40, 170 40 C119.92 40, 69.85 40, 10 40 C3.33 40, 0 36.67, 0 30 C0 24.38, 0 18.76, 0 10 C0 3.33, 3.33 0, 10 0" stroke="none" stroke-width="0" fill="#ffffff"></path><path d="M10 0 C44.89 0, 79.77 0, 170 0 M10 0 C48.27 0, 86.54 0, 170 0 M170 0 C176.67 0, 180 3.33, 180 10 M170 0 C176.67 0, 180 3.33, 180 10 M180 10 C180 14.39, 180 18.77, 180 30 M180 10 C180 17.25, 180 24.5, 180 30 M180 30 C180 36.67, 176.67 40, 170 40 M180 30 C180 36.67, 176.67 40, 170 40 M170 40 C125.52 40, 81.05 40, 10 40 M170 40 C126.61 40, 83.23 40, 10 40 M10 40 C3.33 40, 0 36.67, 0 30 M10 40 C3.33 40, 0 36.67, 0 30 M0 30 C0 24.42, 0 18.84, 0 10 M0 30 C0 22.33, 0 14.65, 0 10 M0 10 C0 3.33, 3.33 0, 10 0 M0 10 C0 3.33, 3.33 0, 10 0" stroke="#1e1e1e" stroke-width="1" fill="none"></path></g><g transform="translate(405 1353) rotate(0 55 12)"><text x="55" y="15.51025390625" font-family="Helvetica, sans-serif, Segoe UI Emoji" font-size="13px" fill="#1e1e1e" text-anchor="middle" style="white-space: pre;" direction="ltr" dominant-baseline="alphabetic">Registar Conta</text></g><g stroke-linecap="round" transform="translate(370 1395) rotate(0 90 20)"><path d="M10 0 C44.84 0, 79.67 0, 170 0 C176.67 0, 180 3.33, 180 10 C180 17.57, 180 25.14, 180 30 C180 36.67, 176.67 40, 170 40 C108.59 40, 47.18 40, 10 40 C3.33 40, 0 36.67, 0 30 C0 22.65, 0 15.3, 0 10 C0 3.33, 3.33 0, 10 0" stroke="none" stroke-width="0" fill="#ffffff"></path><path d="M10 0 C44.89 0, 79.77 0, 170 0 M10 0 C71.31 0, 132.62 0, 170 0 M170 0 C176.67 0, 180 3.33, 180 10 M170 0 C176.67 0, 180 3.33, 180 10 M180 10 C180 15.09, 180 20.17, 180 30 M180 10 C180 16.83, 180 23.66, 180 30 M180 30 C180 36.67, 176.67 40, 170 40 M180 30 C180 36.67, 176.67 40, 170 40 M170 40 C120.51 40, 71.02 40, 10 40 M170 40 C121.55 40, 73.1 40, 10 40 M10 40 C3.33 40, 0 36.67, 0 30 M10 40 C3.33 40, 0 36.67, 0 30 M0 30 C0 24.95, 0 19.9, 0 10 M0 30 C0 23.27, 0 16.54, 0 10 M0 10 C0 3.33, 3.33 0, 10 0 M0 10 C0 3.33, 3.33 0, 10 0" stroke="#1e1e1e" stroke-width="1" fill="none"></path></g><g transform="translate(385 1403) rotate(0 75 12)"><text x="75" y="15.51025390625" font-family="Helvetica, sans-serif, Segoe UI Emoji" font-size="13px" fill="#1e1e1e" text-anchor="middle" style="white-space: pre;" direction="ltr" dominant-baseline="alphabetic">Efetuar Transferência</text></g><g stroke-linecap="round" transform="translate(370 1445) rotate(0 90 20)"><path d="M10 0 C51.23 0, 92.46 0, 170 0 C176.67 0, 180 3.33, 180 10 C180 14.58, 180 19.16, 180 30 C180 36.67, 176.67 40, 170 40 C129.25 40, 88.51 40, 10 40 C3.33 40, 0 36.67, 0 30 C0 24.92, 0 19.84, 0 10 C0 3.33, 3.33 0, 10 0" stroke="none" stroke-width="0" fill="#ffffff"></path><path d="M10 0 C44.89 0, 79.78 0, 170 0 M10 0 C62.35 0, 114.69 0, 170 0 M170 0 C176.67 0, 180 3.33, 180 10 M170 0 C176.67 0, 180 3.33, 180 10 M180 10 C180 15.79, 180 21.57, 180 30 M180 10 C180 16.41, 180 22.82, 180 30 M180 30 C180 36.67, 176.67 40, 170 40 M180 30 C180 36.67, 176.67 40, 170 40 M170 40 C115.49 40, 60.99 40, 10 40 M170 40 C116.49 40, 62.98 40, 10 40 M10 40 C3.33 40, 0 36.67, 0 30 M10 40 C3.33 40, 0 36.67, 0 30 M0 30 C0 25.48, 0 20.95, 0 10 M0 30 C0 24.21, 0 18.43, 0 10 M0 10 C0 3.33, 3.33 0, 10 0 M0 10 C0 3.33, 3.33 0, 10 0" stroke="#1e1e1e" stroke-width="1" fill="none"></path></g><g transform="translate(400 1453) rotate(0 60 12)"><text x="60" y="15.51025390625" font-family="Helvetica, sans-serif, Segoe UI Emoji" font-size="13px" fill="#1e1e1e" text-anchor="middle" style="white-space: pre;" direction="ltr" dominant-baseline="alphabetic">Consultar Saldo</text></g><g stroke-linecap="round" transform="translate(370 1495) rotate(0 90 20)"><path d="M10 0 C57.63 0, 105.25 0, 170 0 C176.67 0, 180 3.33, 180 10 C180 15.6, 180 21.19, 180 30 C180 36.67, 176.67 40, 170 40 C117.92 40, 65.84 40, 10 40 C3.33 40, 0 36.67, 0 30 C0 23.19, 0 16.38, 0 10 C0 3.33, 3.33 0, 10 0" stroke="none" stroke-width="0" fill="#ffffff"></path><path d="M10 0 C44.89 0, 79.78 0, 170 0 M10 0 C53.38 0, 96.77 0, 170 0 M170 0 C176.67 0, 180 3.33, 180 10 M170 0 C176.67 0, 180 3.33, 180 10 M180 10 C180 16.49, 180 22.97, 180 30 M180 10 C180 15.99, 180 21.98, 180 30 M180 30 C180 36.67, 176.67 40, 170 40 M180 30 C180 36.67, 176.67 40, 170 40 M170 40 C110.48 40, 50.96 40, 10 40 M170 40 C111.43 40, 52.85 40, 10 40 M10 40 C3.33 40, 0 36.67, 0 30 M10 40 C3.33 40, 0 36.67, 0 30 M0 30 C0 22, 0 14.01, 0 10 M0 30 C0 25.16, 0 20.31, 0 10 M0 10 C0 3.33, 3.33 0, 10 0 M0 10 C0 3.33, 3.33 0, 10 0" stroke="#1e1e1e" stroke-width="1" fill="none"></path></g><g transform="translate(405 1503) rotate(0 55 12)"><text x="55" y="15.51025390625" font-family="Helvetica, sans-serif, Segoe UI Emoji" font-size="13px" fill="#1e1e1e" text-anchor="middle" style="white-space: pre;" direction="ltr" dominant-baseline="alphabetic">Configurar PIN</text></g><g stroke-linecap="round" transform="translate(370 1545) rotate(0 90 20)"><path d="M10 0 C64.02 0, 118.04 0, 170 0 C176.67 0, 180 3.33, 180 10 C180 16.61, 180 23.22, 180 30 C180 36.67, 176.67 40, 170 40 C106.58 40, 43.17 40, 10 40 C3.33 40, 0 36.67, 0 30 C0 25.46, 0 20.92, 0 10 C0 3.33, 3.33 0, 10 0" stroke="none" stroke-width="0" fill="#ffffff"></path><path d="M10 0 C44.89 0, 79.78 0, 170 0 M10 0 C44.42 0, 78.84 0, 170 0 M170 0 C176.67 0, 180 3.33, 180 10 M170 0 C176.67 0, 180 3.33, 180 10 M180 10 C180 17.19, 180 24.37, 180 30 M180 10 C180 15.57, 180 21.14, 180 30 M180 30 C180 36.67, 176.67 40, 170 40 M180 30 C180 36.67, 176.67 40, 170 40 M170 40 C137.46 40, 104.93 40, 10 40 M170 40 C106.36 40, 42.73 40, 10 40 M10 40 C3.33 40, 0 36.67, 0 30 M10 40 C3.33 40, 0 36.67, 0 30 M0 30 C0 22.53, 0 15.06, 0 10 M0 30 C0 22.1, 0 14.2, 0 10 M0 10 C0 3.33, 3.33 0, 10 0 M0 10 C0 3.33, 3.33 0, 10 0" stroke="#1e1e1e" stroke-width="1" fill="none"></path></g><g transform="translate(380 1553) rotate(0 80 12)"><text x="80" y="15.51025390625" font-family="Helvetica, sans-serif, Segoe UI Emoji" font-size="13px" fill="#1e1e1e" text-anchor="middle" style="white-space: pre;" direction="ltr" dominant-baseline="alphabetic">Alterar Palavra-passe</text></g><g stroke-linecap="round" transform="translate(370 1595) rotate(0 90 20)"><path d="M10 0 C70.42 0, 130.83 0, 170 0 C176.67 0, 180 3.33, 180 10 C180 17.63, 180 25.25, 180 30 C180 36.67, 176.67 40, 170 40 C127.25 40, 84.5 40, 10 40 C3.33 40, 0 36.67, 0 30 C0 23.73, 0 17.46, 0 10 C0 3.33, 3.33 0, 10 0" stroke="none" stroke-width="0" fill="#ffffff"></path><path d="M10 0 C44.89 0, 79.79 0, 170 0 M10 0 C67.46 0, 124.92 0, 170 0 M170 0 C176.67 0, 180 3.33, 180 10 M170 0 C176.67 0, 180 3.33, 180 10 M180 10 C180 17.89, 180 25.77, 180 30 M180 10 C180 15.15, 180 20.3, 180 30 M180 30 C180 36.67, 176.67 40, 170 40 M180 30 C180 36.67, 176.67 40, 170 40 M170 40 C132.45 40, 94.9 40, 10 40 M170 40 C133.3 40, 96.6 40, 10 40 M10 40 C3.33 40, 0 36.67, 0 30 M10 40 C3.33 40, 0 36.67, 0 30 M0 30 C0 23.06, 0 16.12, 0 10 M0 30 C0 23.04, 0 16.09, 0 10 M0 10 C0 3.33, 3.33 0, 10 0 M0 10 C0 3.33, 3.33 0, 10 0" stroke="#1e1e1e" stroke-width="1" fill="none"></path></g><g transform="translate(390 1603) rotate(0 70 12)"><text x="70" y="15.51025390625" font-family="Helvetica, sans-serif, Segoe UI Emoji" font-size="13px" fill="#1e1e1e" text-anchor="middle" style="white-space: pre;" direction="ltr" dominant-baseline="alphabetic">Gerir Perfil (foto)</text></g><g stroke-linecap="round" transform="translate(651 1338) rotate(0 100 20)"><path d="M10 0 C49.16 0, 88.32 0, 190 0 C196.67 0, 200 3.33, 200 10 C200 14.64, 200 19.28, 200 30 C200 36.67, 196.67 40, 190 40 C129.15 40, 68.31 40, 10 40 C3.33 40, 0 36.67, 0 30 C0 22, 0 14, 0 10 C0 3.33, 3.33 0, 10 0" stroke="none" stroke-width="0" fill="#ffffff"></path><path d="M10 0 C49.26 0, 88.51 0, 190 0 M10 0 C64.56 0, 119.12 0, 190 0 M190 0 C196.67 0, 200 3.33, 200 10 M190 0 C196.67 0, 200 3.33, 200 10 M200 10 C200 14.59, 200 19.17, 200 30 M200 10 C200 14.73, 200 19.47, 200 30 M200 30 C200 36.67, 196.67 40, 190 40 M200 30 C200 36.67, 196.67 40, 190 40 M190 40 C142.11 40, 94.22 40, 10 40 M190 40 C143.02 40, 96.04 40, 10 40 M10 40 C3.33 40, 0 36.67, 0 30 M10 40 C3.33 40, 0 36.67, 0 30 M0 30 C0 23.59, 0 17.17, 0 10 M0 30 C0 23.99, 0 17.97, 0 10 M0 10 C0 3.33, 3.33 0, 10 0 M0 10 C0 3.33, 3.33 0, 10 0" stroke="#1e1e1e" stroke-width="1" fill="none"></path></g><g transform="translate(675 1347) rotate(0 80 12)"><text x="80" y="15.51025390625" font-family="Helvetica, sans-serif, Segoe UI Emoji" font-size="13px" fill="#1e1e1e" text-anchor="middle" style="white-space: pre;" direction="ltr" dominant-baseline="alphabetic">Gerar Par de Chaves</text></g><g stroke-linecap="round" transform="translate(653 1384) rotate(0 100 20)"><path d="M10 0 C56.36 0, 102.71 0, 190 0 C196.67 0, 200 3.33, 200 10 C200 15.65, 200 21.31, 200 30 C200 36.67, 196.67 40, 190 40 C152.4 40, 114.8 40, 10 40 C3.33 40, 0 36.67, 0 30 C0 24.27, 0 18.54, 0 10 C0 3.33, 3.33 0, 10 0" stroke="none" stroke-width="0" fill="#ffffff"></path><path d="M10 0 C49.26 0, 88.52 0, 190 0 M10 0 C54.48 0, 98.96 0, 190 0 M190 0 C196.67 0, 200 3.33, 200 10 M190 0 C196.67 0, 200 3.33, 200 10 M200 10 C200 15.29, 200 20.57, 200 30 M200 10 C200 14.31, 200 18.63, 200 30 M200 30 C200 36.67, 196.67 40, 190 40 M200 30 C200 36.67, 196.67 40, 190 40 M190 40 C136.47 40, 82.94 40, 10 40 M190 40 C137.32 40, 84.65 40, 10 40 M10 40 C3.33 40, 0 36.67, 0 30 M10 40 C3.33 40, 0 36.67, 0 30 M0 30 C0 24.11, 0 18.23, 0 10 M0 30 C0 24.93, 0 19.86, 0 10 M0 10 C0 3.33, 3.33 0, 10 0 M0 10 C0 3.33, 3.33 0, 10 0" stroke="#1e1e1e" stroke-width="1" fill="none"></path></g><g transform="translate(681 1396) rotate(0 70 12)"><text x="70" y="15.51025390625" font-family="Helvetica, sans-serif, Segoe UI Emoji" font-size="13px" fill="#1e1e1e" text-anchor="middle" style="white-space: pre;" direction="ltr" dominant-baseline="alphabetic">Assinar Transação</text></g><g stroke-linecap="round" transform="translate(658 1439) rotate(0 100 20)"><path d="M10 0 C63.55 0, 117.1 0, 190 0 C196.67 0, 200 3.33, 200 10 C200 16.67, 200 23.34, 200 30 C200 36.67, 196.67 40, 190 40 C139.65 40, 89.3 40, 10 40 C3.33 40, 0 36.67, 0 30 C0 22.54, 0 15.08, 0 10 C0 3.33, 3.33 0, 10 0" stroke="none" stroke-width="0" fill="#ffffff"></path><path d="M10 0 C49.26 0, 88.52 0, 190 0 M10 0 C80.4 0, 150.79 0, 190 0 M190 0 C196.67 0, 200 3.33, 200 10 M190 0 C196.67 0, 200 3.33, 200 10 M200 10 C200 15.99, 200 21.97, 200 30 M200 10 C200 17.89, 200 25.79, 200 30 M200 30 C200 36.67, 196.67 40, 190 40 M200 30 C200 36.67, 196.67 40, 190 40 M190 40 C130.83 40, 71.66 40, 10 40 M190 40 C131.63 40, 73.26 40, 10 40 M10 40 C3.33 40, 0 36.67, 0 30 M10 40 C3.33 40, 0 36.67, 0 30 M0 30 C0 24.64, 0 19.28, 0 10 M0 30 C0 25.87, 0 21.75, 0 10 M0 10 C0 3.33, 3.33 0, 10 0 M0 10 C0 3.33, 3.33 0, 10 0" stroke="#1e1e1e" stroke-width="1" fill="none"></path></g><g transform="translate(675 1446) rotate(0 75 12)"><text x="75" y="15.51025390625" font-family="Helvetica, sans-serif, Segoe UI Emoji" font-size="13px" fill="#1e1e1e" text-anchor="middle" style="white-space: pre;" direction="ltr" dominant-baseline="alphabetic">Verificar Assinatura</text></g><g stroke-linecap="round" transform="translate(390 1670) rotate(0 100 20)"><path d="M10 0 C70.75 0, 131.49 0, 190 0 C196.67 0, 200 3.33, 200 10 C200 17.68, 200 25.36, 200 30 C200 36.67, 196.67 40, 190 40 C126.9 40, 63.79 40, 10 40 C3.33 40, 0 36.67, 0 30 C0 24.81, 0 19.62, 0 10 C0 3.33, 3.33 0, 10 0" stroke="none" stroke-width="0" fill="#ffffff"></path><path d="M10 0 C49.26 0, 88.52 0, 190 0 M10 0 C70.31 0, 130.63 0, 190 0 M190 0 C196.67 0, 200 3.33, 200 10 M190 0 C196.67 0, 200 3.33, 200 10 M200 10 C200 16.69, 200 23.37, 200 30 M200 10 C200 17.48, 200 24.95, 200 30 M200 30 C200 36.67, 196.67 40, 190 40 M200 30 C200 36.67, 196.67 40, 190 40 M190 40 C125.19 40, 60.37 40, 10 40 M190 40 C125.93 40, 61.86 40, 10 40 M10 40 C3.33 40, 0 36.67, 0 30 M10 40 C3.33 40, 0 36.67, 0 30 M0 30 C0 25.17, 0 20.34, 0 10 M0 30 C0 22.82, 0 15.63, 0 10 M0 10 C0 3.33, 3.33 0, 10 0 M0 10 C0 3.33, 3.33 0, 10 0" stroke="#1e1e1e" stroke-width="1" fill="none"></path></g><g transform="translate(415 1678) rotate(0 75 12)"><text x="75" y="15.51025390625" font-family="Helvetica, sans-serif, Segoe UI Emoji" font-size="13px" fill="#1e1e1e" text-anchor="middle" style="white-space: pre;" direction="ltr" dominant-baseline="alphabetic">Autenticar Utilizador</text></g><g stroke-linecap="round" transform="translate(390 1730) rotate(0 100 20)"><path d="M10 0 C77.94 0, 145.88 0, 190 0 C196.67 0, 200 3.33, 200 10 C200 14.7, 200 19.39, 200 30 C200 36.67, 196.67 40, 190 40 C150.15 40, 110.29 40, 10 40 C3.33 40, 0 36.67, 0 30 C0 23.08, 0 16.16, 0 10 C0 3.33, 3.33 0, 10 0" stroke="none" stroke-width="0" fill="#ffffff"></path><path d="M10 0 C49.26 0, 88.53 0, 190 0 M10 0 C60.23 0, 110.46 0, 190 0 M190 0 C196.67 0, 200 3.33, 200 10 M190 0 C196.67 0, 200 3.33, 200 10 M200 10 C200 17.39, 200 24.77, 200 30 M200 10 C200 17.06, 200 24.11, 200 30 M200 30 C200 36.67, 196.67 40, 190 40 M200 30 C200 36.67, 196.67 40, 190 40 M190 40 C119.54 40, 49.09 40, 10 40 M190 40 C120.24 40, 50.47 40, 10 40 M10 40 C3.33 40, 0 36.67, 0 30 M10 40 C3.33 40, 0 36.67, 0 30 M0 30 C0 25.7, 0 21.39, 0 10 M0 30 C0 23.76, 0 17.52, 0 10 M0 10 C0 3.33, 3.33 0, 10 0 M0 10 C0 3.33, 3.33 0, 10 0" stroke="#1e1e1e" stroke-width="1" fill="none"></path></g><g transform="translate(425 1738) rotate(0 65 12)"><text x="65" y="15.51025390625" font-family="Helvetica, sans-serif, Segoe UI Emoji" font-size="13px" fill="#1e1e1e" text-anchor="middle" style="white-space: pre;" direction="ltr" dominant-baseline="alphabetic">Armazenar Dados</text></g><g stroke-linecap="round" transform="translate(390 1790) rotate(0 100 20)"><path d="M10 0 C49.13 0, 88.27 0, 190 0 C196.67 0, 200 3.33, 200 10 C200 15.71, 200 21.42, 200 30 C200 36.67, 196.67 40, 190 40 C137.39 40, 84.79 40, 10 40 C3.33 40, 0 36.67, 0 30 C0 25.35, 0 20.7, 0 10 C0 3.33, 3.33 0, 10 0" stroke="none" stroke-width="0" fill="#ffffff"></path><path d="M10 0 C49.26 0, 88.53 0, 190 0 M10 0 C50.15 0, 90.3 0, 190 0 M190 0 C196.67 0, 200 3.33, 200 10 M190 0 C196.67 0, 200 3.33, 200 10 M200 10 C200 14.09, 200 18.17, 200 30 M200 10 C200 16.64, 200 23.27, 200 30 M200 30 C200 36.67, 196.67 40, 190 40 M200 30 C200 36.67, 196.67 40, 190 40 M190 40 C149.9 40, 109.8 40, 10 40 M190 40 C150.54 40, 111.08 40, 10 40 M10 40 C3.33 40, 0 36.67, 0 30 M10 40 C3.33 40, 0 36.67, 0 30 M0 30 C0 22.22, 0 14.45, 0 10 M0 30 C0 24.7, 0 19.41, 0 10 M0 10 C0 3.33, 3.33 0, 10 0 M0 10 C0 3.33, 3.33 0, 10 0" stroke="#1e1e1e" stroke-width="1" fill="none"></path></g><g transform="translate(400 1798) rotate(0 90 12)"><text x="90" y="15.51025390625" font-family="Helvetica, sans-serif, Segoe UI Emoji" font-size="13px" fill="#1e1e1e" text-anchor="middle" style="white-space: pre;" direction="ltr" dominant-baseline="alphabetic">Processar Transferência</text></g><g stroke-linecap="round"><g transform="translate(220 1480) rotate(0 74 -82.5)"><path d="M0 0 C32.29 -36, 64.58 -71.99, 148 -165 M0 0 C37.74 -42.08, 75.48 -84.16, 148 -165" stroke="#6750A4" stroke-width="1" fill="none"></path></g></g><mask></mask><g stroke-linecap="round"><g transform="translate(220 1483) rotate(0 74 -59)"><path d="M0 0 C32.29 -25.74, 64.58 -51.49, 148 -118 M0 0 C48.4 -38.59, 96.8 -77.17, 148 -118" stroke="#6750A4" stroke-width="1" fill="none"></path></g></g><mask></mask><g stroke-linecap="round"><g transform="translate(220 1487) rotate(0 74 -36)"><path d="M0 0 C32.29 -15.71, 64.58 -31.42, 148 -72 M0 0 C59.05 -28.73, 118.11 -57.46, 148 -72" stroke="#6750A4" stroke-width="1" fill="none"></path></g></g><mask></mask><g stroke-linecap="round"><g transform="translate(220 1490) rotate(0 74 -12.5)"><path d="M0 0 C32.29 -5.45, 64.58 -10.91, 148 -25 M0 0 C40.11 -6.77, 80.22 -13.55, 148 -25" stroke="#6750A4" stroke-width="1" fill="none"></path></g></g><mask></mask><g stroke-linecap="round"><g transform="translate(220 1493) rotate(0 74 11)"><path d="M0 0 C32.29 4.8, 64.58 9.6, 148 22 M0 0 C50.76 7.55, 101.53 15.09, 148 22" stroke="#6750A4" stroke-width="1" fill="none"></path></g></g><mask></mask><g stroke-linecap="round"><g transform="translate(220 1495) rotate(0 74 35)"><path d="M0 0 C32.29 15.27, 64.58 30.55, 148 70 M0 0 C31.82 15.05, 63.64 30.1, 148 70" stroke="#6750A4" stroke-width="1" fill="none"></path></g></g><mask></mask><g stroke-linecap="round"><g transform="translate(220 1498) rotate(0 74 58.5)"><path d="M0 0 C32.29 25.53, 64.58 51.06, 148 117 M0 0 C42.47 33.58, 84.95 67.15, 148 117" stroke="#6750A4" stroke-width="1" fill="none"></path></g></g><mask></mask><g stroke-linecap="round"><g transform="translate(949 1427.158878504673) rotate(0 -50 -34.579439252336556)"><path d="M0 0 C-21.82 -15.09, -43.64 -30.18, -100 -69.16 M0 0 C-35.9 -24.83, -71.79 -49.65, -100 -69.16" stroke="#00BCD4" stroke-width="1" fill="none"></path></g></g><mask></mask><g stroke-linecap="round"><g transform="translate(960 1430) rotate(0 -56 -12)"><path d="M0 0 C-24.44 -5.24, -48.88 -10.47, -112 -24 M0 0 C-25.87 -5.54, -51.74 -11.09, -112 -24" stroke="#00BCD4" stroke-width="1" fill="none"></path></g></g><mask></mask><g stroke-linecap="round"><g transform="translate(960 1430) rotate(0 -52.5 15)"><path d="M0 0 C-22.91 6.55, -45.82 13.09, -105 30 M0 0 C-31.81 9.09, -63.62 18.18, -105 30" stroke="#00BCD4" stroke-width="1" fill="none"></path></g></g><mask></mask><g stroke-linecap="round"><g transform="translate(956 1729.3133143498146) rotate(0 -184 -19.15665717490731)"><path d="M0 0 C-80.3 -8.36, -160.6 -16.72, -368 -38.31 M0 0 C-137.98 -14.37, -275.97 -28.73, -368 -38.31" stroke="#FF9800" stroke-width="1" fill="none"></path></g></g><mask></mask><g stroke-linecap="round"><g transform="translate(956 1733.7503212867841) rotate(0 -184 9.624839356607936)"><path d="M0 0 C-80.3 4.2, -160.6 8.4, -368 19.25 M0 0 C-90.88 4.75, -181.75 9.51, -368 19.25" stroke="#FF9800" stroke-width="1" fill="none"></path></g></g><mask></mask><g stroke-linecap="round"><g transform="translate(955.9999999999999 1737.509290747419) rotate(0 -182.74999999999994 35.59925644661905)"><path d="M0 0 C-79.76 15.54, -159.52 31.07, -365.5 71.2 M0 0 C-116.57 22.71, -233.15 45.42, -365.5 71.2" stroke="#FF9800" stroke-width="1" fill="none"></path></g></g><mask></mask><g transform="translate(548 1410) rotate(0 35 8)"><text x="35" y="10.7001953125" font-family="Helvetica, sans-serif, Segoe UI Emoji" font-size="10px" fill="#888888" text-anchor="middle" style="white-space: pre;" direction="ltr" dominant-baseline="alphabetic">&lt;&lt;include&gt;&gt;</text></g><g stroke-linecap="round"><g transform="translate(552 1420) rotate(0 47.75000000000006 20.20192307692298)"><path d="M0 0 C20.84 8.82, 41.69 17.64, 95.5 40.4" stroke="#888888" stroke-width="1.5" fill="none" stroke-dasharray="8 9"></path></g><g transform="translate(552 1420) rotate(0 47.75000000000006 20.20192307692298)"><path d="M70.53 39.13 C75.98 39.4, 81.43 39.68, 95.5 40.4" stroke="#888888" stroke-width="1.5" fill="none"></path></g><g transform="translate(552 1420) rotate(0 47.75000000000006 20.20192307692298)"><path d="M77.2 23.38 C81.19 27.09, 85.19 30.81, 95.5 40.4" stroke="#888888" stroke-width="1.5" fill="none"></path></g></g><mask></mask><g stroke-linecap="round"><g transform="translate(552.100729685189 1514.8066913423602) rotate(359.2773852005123 44.66430198588907 -73.40671469576421)"><path d="M0 0 C7.2 -0.76, 14.41 -1.53, 33 -3.5 M33 -3.5 C46.46 -37.73, 59.91 -71.97, 89.33 -146.81" stroke="#888888" stroke-width="1.5" fill="none" stroke-dasharray="8 9"></path></g><g transform="translate(552.100729685189 1514.8066913423602) rotate(359.2773852005123 44.66430198588907 -73.40671469576421)"><path d="M88.69 -121.82 C88.83 -127.28, 88.97 -132.73, 89.33 -146.81" stroke="#888888" stroke-width="1.5" fill="none"></path></g><g transform="translate(552.100729685189 1514.8066913423602) rotate(359.2773852005123 44.66430198588907 -73.40671469576421)"><path d="M72.78 -128.08 C76.39 -132.17, 80 -136.26, 89.33 -146.81" stroke="#888888" stroke-width="1.5" fill="none"></path></g></g><mask></mask><g transform="translate(583 1496) rotate(0 35 8)"><text x="35" y="10.7001953125" font-family="Helvetica, sans-serif, Segoe UI Emoji" font-size="10px" fill="#888888" text-anchor="middle" style="white-space: pre;" direction="ltr" dominant-baseline="alphabetic">&lt;&lt;include&gt;&gt;</text></g><g stroke-linecap="round"><g transform="translate(559.1052631578939 1436.4999999999998) rotate(0 72.94736842105306 111.93421245290097)"><path d="M0 0 C31.84 16.81, 63.69 33.61, 145.89 77 M145.89 77 C100.61 133.23, 55.33 189.46, 27.63 223.87" stroke="#888888" stroke-width="1.5" fill="none" stroke-dasharray="8 9"></path></g><g transform="translate(559.1052631578939 1436.4999999999998) rotate(0 72.94736842105306 111.93421245290097)"><path d="M35.7 200.21 C33.94 205.37, 32.18 210.54, 27.63 223.87" stroke="#888888" stroke-width="1.5" fill="none"></path></g><g transform="translate(559.1052631578939 1436.4999999999998) rotate(0 72.94736842105306 111.93421245290097)"><path d="M49.02 210.93 C44.35 213.76, 39.68 216.58, 27.63 223.87" stroke="#888888" stroke-width="1.5" fill="none"></path></g></g><mask></mask><g transform="translate(623 1602) rotate(0 35 8)"><text x="35" y="10.7001953125" font-family="Helvetica, sans-serif, Segoe UI Emoji" font-size="10px" fill="#888888" text-anchor="middle" style="white-space: pre;" direction="ltr" dominant-baseline="alphabetic">&lt;&lt;include&gt;&gt;</text></g><g transform="translate(1265 1933) rotate(0 83.5 11)"><text x="0" y="15.3203125" font-family="Helvetica, sans-serif, Segoe UI Emoji" font-size="16px" fill="#1e1e1e" text-anchor="start" style="white-space: pre;" direction="ltr" dominant-baseline="alphabetic">Legenda de Cores</text></g><g stroke-linecap="round" transform="translate(1265 1965) rotate(0 10 10)"><path d="M0 0 L20 0 L20 20 L0 20" stroke="none" stroke-width="0" fill="#6750A4"></path><path d="M0 0 C4.45 0, 8.9 0, 20 0 M0 0 C6.26 0, 12.52 0, 20 0 M20 0 C20 6.75, 20 13.5, 20 20 M20 0 C20 7.17, 20 14.34, 20 20 M20 20 C14.25 20, 8.5 20, 0 20 M20 20 C15.44 20, 10.88 20, 0 20 M0 20 C0 13.6, 0 7.21, 0 0 M0 20 C0 13.8, 0 7.59, 0 0" stroke="#6750A4" stroke-width="1" fill="none"></path></g><g transform="translate(1295 1966) rotate(0 100 9)"><text x="0" y="12.51025390625" font-family="Helvetica, sans-serif, Segoe UI Emoji" font-size="13px" fill="#6750A4" text-anchor="start" style="white-space: pre;" direction="ltr" dominant-baseline="alphabetic">Camada de Apresentação</text></g><g stroke-linecap="round" transform="translate(1265 1993) rotate(0 10 10)"><path d="M0 0 L20 0 L20 20 L0 20" stroke="none" stroke-width="0" fill="#00BCD4"></path><path d="M0 0 C4.45 0, 8.9 0, 20 0 M0 0 C5.14 0, 10.28 0, 20 0 M20 0 C20 4.16, 20 8.31, 20 20 M20 0 C20 6.18, 20 12.36, 20 20 M20 20 C15.79 20, 11.58 20, 0 20 M20 20 C13.8 20, 7.61 20, 0 20 M0 20 C0 15.98, 0 11.95, 0 0 M0 20 C0 15.74, 0 11.47, 0 0" stroke="#00BCD4" stroke-width="1" fill="none"></path></g><g transform="translate(1295 1994) rotate(0 75 9)"><text x="0" y="12.51025390625" font-family="Helvetica, sans-serif, Segoe UI Emoji" font-size="13px" fill="#00BCD4" text-anchor="start" style="white-space: pre;" direction="ltr" dominant-baseline="alphabetic">Criptografia PQC</text></g><g stroke-linecap="round" transform="translate(1265 2021) rotate(0 10 10)"><path d="M0 0 L20 0 L20 20 L0 20" stroke="none" stroke-width="0" fill="#4CAF50"></path><path d="M0 0 C4.45 0, 8.9 0, 20 0 M0 0 C4.02 0, 8.04 0, 20 0 M20 0 C20 5.56, 20 11.12, 20 20 M20 0 C20 5.19, 20 10.39, 20 20 M20 20 C13.33 20, 6.66 20, 0 20 M20 20 C12.17 20, 4.33 20, 0 20 M0 20 C0 14.35, 0 8.7, 0 0 M0 20 C0 13.68, 0 7.35, 0 0" stroke="#4CAF50" stroke-width="1" fill="none"></path></g><g transform="translate(1295 2022) rotate(0 40 9)"><text x="0" y="12.51025390625" font-family="Helvetica, sans-serif, Segoe UI Emoji" font-size="13px" fill="#4CAF50" text-anchor="start" style="white-space: pre;" direction="ltr" dominant-baseline="alphabetic">Serviços</text></g><g stroke-linecap="round" transform="translate(1265 2049) rotate(0 10 10)"><path d="M0 0 L20 0 L20 20 L0 20" stroke="none" stroke-width="0" fill="#FF9800"></path><path d="M0 0 C4.45 0, 8.9 0, 20 0 M0 0 C6.9 0, 13.8 0, 20 0 M20 0 C20 6.97, 20 13.93, 20 20 M20 0 C20 4.2, 20 8.41, 20 20 M20 20 C14.87 20, 9.73 20, 0 20 M20 20 C14.53 20, 9.06 20, 0 20 M0 20 C0 12.72, 0 5.44, 0 0 M0 20 C0 15.61, 0 11.23, 0 0" stroke="#FF9800" stroke-width="1" fill="none"></path></g><g transform="translate(1295 2050) rotate(0 75 9)"><text x="0" y="12.51025390625" font-family="Helvetica, sans-serif, Segoe UI Emoji" font-size="13px" fill="#FF9800" text-anchor="start" style="white-space: pre;" direction="ltr" dominant-baseline="alphabetic">Dados / Firebase</text></g><g stroke-linecap="round" transform="translate(1265 2077) rotate(0 10 10)"><path d="M0 0 L20 0 L20 20 L0 20" stroke="none" stroke-width="0" fill="#BA1A1A"></path><path d="M0 0 C4.45 0, 8.9 0, 20 0 M0 0 C5.78 0, 11.56 0, 20 0 M20 0 C20 4.37, 20 8.74, 20 20 M20 0 C20 7.22, 20 14.43, 20 20 M20 20 C12.41 20, 4.81 20, 0 20 M20 20 C12.89 20, 5.79 20, 0 20 M0 20 C0 15.09, 0 10.19, 0 0 M0 20 C0 13.55, 0 7.11, 0 0" stroke="#BA1A1A" stroke-width="1" fill="none"></path></g><g transform="translate(1295 2078) rotate(0 50 9)"><text x="0" y="12.51025390625" font-family="Helvetica, sans-serif, Segoe UI Emoji" font-size="13px" fill="#BA1A1A" text-anchor="start" style="white-space: pre;" direction="ltr" dominant-baseline="alphabetic">Erro / Aviso</text></g></svg>